HIERARCHY
ROOT Hips
{
    OFFSET 0.000000 0.000000 0.000000
    CHANNELS 6 Xposition Yposition Zposition Zrotation Xrotation Yrotation
    JOINT Spine
    {
        OFFSET -0.000000 14.517291 0.000000
        CHANNELS 3 Zrotation Xrotation Yrotation
        JOINT Spine1
        {
            OFFSET -0.000000 37.558300 0.000000
            CHANNELS 3 Zrotation Xrotation Yrotation
            JOINT Neck
            {
                OFFSET -0.000000 37.404057 3.400369
                CHANNELS 3 Zrotation Xrotation Yrotation
                JOINT Head
                {
                    OFFSET -0.000000 24.785618 -3.540803
                    CHANNELS 3 Zrotation Xrotation Yrotation
                    End Site
                    {
                        OFFSET -0.000000 35.408028 0.000000
                    }
                }
            }
            JOINT LeftShoulder
            {
                OFFSET 6.992933 33.973492 -0.192664
                CHANNELS 3 Zrotation Xrotation Yrotation
                JOINT LeftArm
                {
                    OFFSET 21.527611 0.000000 0.000000
                    CHANNELS 3 Zrotation Xrotation Yrotation
                    JOINT LeftForeArm
                    {
                        OFFSET 56.353916 0.000000 0.000000
                        CHANNELS 3 Zrotation Xrotation Yrotation
                        JOINT LeftHand
                        {
                            OFFSET 47.774071 0.000000 0.000000
                            CHANNELS 3 Zrotation Xrotation Yrotation
                            End Site
                            {
                                OFFSET 26.556021 0.000000 0.000000
                            }
                        }
                    }
                }
            }
            JOINT RightShoulder
            {
                OFFSET -7.065357 33.973492 -0.192664
                CHANNELS 3 Zrotation Xrotation Yrotation
                JOINT RightArm
                {
                    OFFSET -21.527611 0.000000 0.000000
                    CHANNELS 3 Zrotation Xrotation Yrotation
                    JOINT RightForeArm
                    {
                        OFFSET -56.353916 0.000000 0.000000
                        CHANNELS 3 Zrotation Xrotation Yrotation
                        JOINT RightHand
                        {
                            OFFSET -47.774071 0.000000 0.000000
                            CHANNELS 3 Zrotation Xrotation Yrotation
                            End Site
                            {
                                OFFSET -26.556021 0.000000 0.000000
                            }
                        }
                    }
                }
            }
        }
    }
    JOINT LeftUpLeg
    {
        OFFSET 17.704014 0.000000 0.000000
        CHANNELS 3 Zrotation Xrotation Yrotation
        JOINT LeftLeg
        {
            OFFSET -0.000000 -81.181816 0.000000
            CHANNELS 3 Zrotation Xrotation Yrotation
            JOINT LeftFoot
            {
                OFFSET -0.000000 -62.821102 0.000000
                CHANNELS 3 Zrotation Xrotation Yrotation
                JOINT LeftToeBase
                {
                    OFFSET -0.000000 -11.507608 26.556021
                    CHANNELS 3 Zrotation Xrotation Yrotation
                    End Site
                    {
                        OFFSET -0.000000 0.000000 7.081605
                    }
                }
            }
        }
    }
    JOINT RightUpLeg
    {
        OFFSET -17.704014 0.000000 0.000000
        CHANNELS 3 Zrotation Xrotation Yrotation
        JOINT RightLeg
        {
            OFFSET -0.000000 -81.181816 0.000000
            CHANNELS 3 Zrotation Xrotation Yrotation
            JOINT RightFoot
            {
                OFFSET -0.000000 -62.821102 0.000000
                CHANNELS 3 Zrotation Xrotation Yrotation
                JOINT RightToeBase
                {
                    OFFSET -0.000000 -11.507608 26.556021
                    CHANNELS 3 Zrotation Xrotation Yrotation
                    End Site
                    {
                        OFFSET -0.000000 0.000000 7.081605
                    }
                }
            }
        }
    }
}
MOTION
Frames:    8
Frame Time:    0.008333
26.219290    156.169937    -35.474838    1.219552    -0.882024    -45.023087    1.485390    -1.155638    1.376734    1.560059    1.715034    0.428840    15.128135    -2.986630    15.373482    -8.859721    10.130609    12.883892    9.262404    0.930322    -18.174419    -11.660901    -17.169849    -44.295124    11.409266    -38.821075    -24.615801    -27.795721    -27.241302    -43.530407    -5.071823    7.162758    1.004906    29.614235    15.236707    70.478912    26.031372    7.413352    61.701363    4.341312    -7.631575    21.777750    17.119600    -19.316793    4.320454    -11.743580    18.367033    -3.486502    -8.144567    0.192001    38.221931    0.000000    0.000000    0.000000    -16.236589    0.799012    -6.255288    7.029594    28.044312    -2.498661    5.350380    -21.363476    -16.838905    0.000000    0.000000    0.000000    
26.214201    156.176666    -35.509377    1.218968    -0.880676    -45.006706    1.467995    -1.123024    1.391424    1.574487    1.653441    0.434651    15.161794    -2.994448    15.364011    -8.855534    10.169977    12.870243    9.290628    0.940602    -18.196491    -11.668132    -17.160751    -44.300529    11.397219    -38.814671    -24.626823    -27.795467    -27.234541    -43.534054    -5.079648    7.093740    0.993842    29.703947    15.011913    70.664513    25.468493    7.157334    62.864243    4.431583    -7.876189    21.752159    17.129389    -19.328709    4.331550    -11.739593    18.362555    -3.507698    -8.170356    0.222288    38.225780    0.000000    0.000000    0.000000    -16.215303    0.795055    -6.263085    7.016165    28.050459    -2.491867    5.346406    -21.376156    -16.860447    0.000000    0.000000    0.000000    
26.227236    156.176422    -35.492180    1.212420    -0.892390    -44.998253    1.513053    -1.113316    1.413237    1.536956    1.633483    0.442582    15.157273    -3.007630    15.351096    -8.820274    10.200724    12.860000    9.287632    0.936953    -18.232763    -11.652602    -17.144239    -44.283646    11.381211    -38.790577    -24.636808    -27.773399    -27.216904    -43.537060    -5.111048    7.033902    0.977970    29.771708    14.818493    70.885422    24.684855    6.798982    63.999748    4.172154    -8.121121    21.787336    17.106924    -19.311686    4.326934    -11.727751    18.350401    -3.498190    -8.158925    0.221817    38.210171    0.000000    0.000000    0.000000    -16.230101    0.816961    -6.264964    7.023859    28.037426    -2.510331    5.355009    -21.365505    -16.838755    0.000000    0.000000    0.000000    
26.221212    156.181854    -35.523514    1.208273    -0.892631    -44.976154    1.496040    -1.086495    1.420329    1.561825    1.587218    0.445513    15.182296    -3.024170    15.342849    -8.816262    10.244946    12.848339    9.297035    0.940904    -18.250736    -11.660275    -17.158667    -44.292431    11.343542    -38.768787    -24.652832    -27.744032    -27.213808    -43.518887    -5.140755    6.968839    0.973580    29.850349    14.585484    71.096390    24.057369    6.458759    65.169083    4.245130    -8.382619    21.821991    17.116079    -19.315916    4.330733    -11.727652    18.333879    -3.500619    -8.172004    0.266624    38.187332    0.000000    0.000000    0.000000    -16.207363    0.821153    -6.288833    7.002368    28.038708    -2.493596    5.343410    -21.368603    -16.850491    0.000000    0.000000    0.000000    
26.224241    156.183212    -35.527348    1.205881    -0.899136    -44.960278    1.503072    -1.072068    1.430519    1.568318    1.555374    0.449315    15.183392    -3.015323    15.330131    -8.815262    10.244736    12.836082    9.298035    0.944841    -18.267027    -11.669909    -17.166750    -44.292656    11.306033    -38.749550    -24.674719    -27.738617    -27.196060    -43.531502    -5.185161    6.901544    0.972596    29.949898    14.374352    71.276405    23.350571    6.092649    66.374702    4.434271    -8.596395    21.697517    17.104454    -19.313778    4.331078    -11.711851    18.326424    -3.507705    -8.181583    0.279166    38.169628    0.000000    0.000000    0.000000    -16.209969    0.834057    -6.298576    7.004614    28.033163    -2.493623    5.336838    -21.364983    -16.850834    0.000000    0.000000    0.000000    
26.229073    156.184509    -35.533722    1.207435    -0.901051    -44.946068    1.517348    -1.062513    1.444373    1.557176    1.528203    0.454341    15.203045    -3.028416    15.321041    -8.813530    10.267466    12.823137    9.310926    0.941106    -18.288765    -11.670626    -17.149145    -44.290745    11.324372    -38.746616    -24.666162    -27.754032    -27.183489    -43.533482    -5.213490    6.845275    0.964158    30.102890    14.076159    71.497620    22.747635    5.810260    67.452881    4.559420    -8.756632    21.620859    17.097227    -19.318436    4.328270    -11.712272    18.314863    -3.512019    -8.174715    0.299076    38.178345    0.000000    0.000000    0.000000    -16.209955    0.837536    -6.312481    7.001524    28.029644    -2.512890    5.332295    -21.361313    -16.833393    0.000000    0.000000    0.000000    
26.225418    156.184814    -35.540497    1.199049    -0.906430    -44.932880    1.519605    -1.050208    1.449826    1.571286    1.506352    0.456438    15.194570    -3.024629    15.307883    -8.793565    10.265646    12.812273    9.317221    0.942798    -18.299997    -11.679559    -17.142738    -44.290436    11.325417    -38.738052    -24.676991    -27.727734    -27.187401    -43.514450    -5.249522    6.786810    0.969875    30.136923    13.860826    71.734100    22.069643    5.319485    68.615173    4.751758    -9.065910    21.626282    17.098799    -19.307161    4.312173    -11.716529    18.298243    -3.515567    -8.183828    0.303875    38.185024    0.000000    0.000000    0.000000    -16.202517    0.852629    -6.319714    6.997715    28.027622    -2.490305    5.331309    -21.367054    -16.857897    0.000000    0.000000    0.000000    
26.228310    156.185226    -35.546555    1.203959    -0.907848    -44.921005    1.525240    -1.046383    1.458327    1.573855    1.481780    0.459480    15.196552    -3.016392    15.296636    -8.790697    10.256744    12.800723    9.318951    0.956362    -18.309597    -11.683575    -17.166380    -44.291847    11.300811    -38.736561    -24.696604    -27.730362    -27.187126    -43.516998    -5.281557    6.712751    0.984463    30.248585    13.602193    71.924248    21.362659    4.894738    69.758125    5.633730    -9.140782    21.558773    17.090170    -19.312962    4.311948    -11.710073    18.291670    -3.524619    -8.187160    0.313105    38.184940    0.000000    0.000000    0.000000    -16.205612    0.852470    -6.311309    7.005834    28.028568    -2.505698    5.332817    -21.376657    -16.863716    0.000000    0.000000    0.000000    
